<svg width="36" height="36" viewBox="0 0 36 36" fill="none" xmlns="http://www.w3.org/2000/svg">
<path d="M12.8583 31.6407C13.0679 31.7823 13.3064 31.8853 13.5602 31.9438C13.814 32.0023 14.0781 32.0153 14.3375 31.9819C14.5969 31.9486 14.8464 31.8696 15.0718 31.7494C15.2973 31.6292 15.4942 31.4702 15.6514 31.2815C15.8086 31.0927 15.923 30.878 15.988 30.6495C16.053 30.421 16.0674 30.1831 16.0304 29.9496C15.9933 29.7161 15.9055 29.4914 15.7721 29.2884C15.6386 29.0855 15.462 28.9081 15.2524 28.7666C12.1321 26.6595 10.3446 24.6099 9.32109 22.8207C10.7264 23.1464 12.2094 23.0698 13.5641 22.6016C14.9188 22.1334 16.0778 21.2968 16.8801 20.2082C17.6824 19.1195 18.0881 17.8328 18.0408 16.527C17.9935 15.2211 17.4955 13.961 16.6161 12.9217C15.7367 11.8825 14.5195 11.1157 13.1338 10.728C11.7481 10.3403 10.2627 10.3509 8.884 10.7584C7.50531 11.1659 6.30186 11.95 5.44092 13.0017C4.57999 14.0535 4.10433 15.3206 4.08008 16.6269C3.82728 18.8329 4.17514 21.0611 5.09357 23.1189C6.28462 25.8242 8.61285 28.7738 12.8583 31.6407ZM30.8138 31.6407C31.0234 31.7823 31.2619 31.8853 31.5157 31.9438C31.7695 32.0023 32.0336 32.0153 32.293 31.9819C32.5524 31.9486 32.8019 31.8696 33.0273 31.7494C33.2528 31.6292 33.4497 31.4702 33.6069 31.2815C33.7641 31.0927 33.8785 30.878 33.9435 30.6495C34.0085 30.421 34.0229 30.1831 33.9859 29.9496C33.9488 29.7161 33.861 29.4914 33.7276 29.2884C33.5941 29.0855 33.4175 28.9081 33.2079 28.7666C30.0876 26.6595 28.3001 24.6099 27.2766 22.8207C28.6819 23.1464 30.1649 23.0698 31.5196 22.6016C32.8743 22.1334 34.0333 21.2968 34.8356 20.2082C35.6379 19.1195 36.0436 17.8328 35.9963 16.527C35.949 15.2211 35.451 13.961 34.5716 12.9217C33.6922 11.8825 32.4751 11.1157 31.0893 10.728C29.7036 10.3403 28.2182 10.3509 26.8395 10.7584C25.4608 11.1659 24.2574 11.95 23.3964 13.0017C22.5355 14.0535 22.0598 15.3206 22.0356 16.6269C21.7828 18.8329 22.1306 21.0611 23.0491 23.1189C24.2421 25.8242 26.5683 28.7738 30.8138 31.6407Z" fill="black"/>
</svg>
