<svg width="54" height="36" viewBox="0 0 54 36" fill="none" xmlns="http://www.w3.org/2000/svg">
<path d="M38.5695 35.3321C38.2202 35.568 37.8227 35.7397 37.3997 35.8372C36.9767 35.9348 36.5365 35.9564 36.1042 35.9008C35.6719 35.8452 35.2561 35.7135 34.8803 35.5132C34.5046 35.3129 34.1764 35.0479 33.9144 34.7333C33.6524 34.4188 33.4617 34.0609 33.3534 33.68C33.245 33.2992 33.221 32.9028 33.2828 32.5136C33.3445 32.1244 33.4908 31.7499 33.7133 31.4116C33.9358 31.0733 34.2301 30.7778 34.5794 30.5419C39.7798 27.03 42.7591 23.614 44.4649 20.6321C42.1228 21.1749 39.651 21.0473 37.3932 20.267C35.1354 19.4866 33.2036 18.0923 31.8665 16.2779C30.5293 14.4634 29.8532 12.3189 29.9321 10.1425C30.0109 7.96614 30.8409 5.86592 32.3065 4.13381C33.7722 2.4017 35.8008 1.12374 38.1103 0.477573C40.4198 -0.168594 42.8956 -0.150867 45.1934 0.528282C47.4912 1.20743 49.4969 2.51427 50.9318 4.26714C52.3667 6.02002 53.1595 8.13186 53.1999 10.3091C53.6212 13.9858 53.0415 17.6995 51.5108 21.1291C49.5257 25.6379 45.6453 30.5539 38.5695 35.3321ZM8.64366 35.3321C8.29433 35.568 7.89682 35.7397 7.47382 35.8372C7.05083 35.9348 6.61063 35.9564 6.17836 35.9008C5.74609 35.8452 5.33022 35.7135 4.95449 35.5132C4.57876 35.3129 4.25052 35.0479 3.98853 34.7333C3.72654 34.4188 3.53591 34.0609 3.42754 33.68C3.31917 33.2992 3.29517 32.9028 3.35693 32.5136C3.41868 32.1244 3.56497 31.7499 3.78745 31.4116C4.00992 31.0733 4.30422 30.7778 4.65355 30.5419C9.85399 27.03 12.8333 23.614 14.539 20.6321C12.1969 21.1749 9.72521 21.0473 7.46738 20.267C5.20955 19.4866 3.27781 18.0923 1.94065 16.2779C0.6035 14.4634 -0.0726357 12.3189 0.0062294 10.1425C0.0850945 7.96614 0.915043 5.86592 2.38071 4.13381C3.84638 2.4017 5.87495 1.12374 8.18447 0.477573C10.494 -0.168594 12.9697 -0.150867 15.2675 0.528282C17.5653 1.20743 19.5711 2.51427 21.006 4.26714C22.4409 6.02002 23.2336 8.13186 23.2741 10.3091C23.6954 13.9858 23.1156 17.6995 21.5849 21.1291C19.5965 25.6379 15.7195 30.5539 8.64366 35.3321Z" fill="#4E4E4E"/>
</svg>
